<svg width="1055" height="610" viewBox="0 0 1055 610" fill="none" xmlns="http://www.w3.org/2000/svg">
<g clip-path="url(#clip0_1216_5)">
<path d="M594.791 308.2C594.791 471.96 462.941 604.72 300.291 604.72C137.641 604.72 5.80078 472 5.80078 308.2C5.80078 144.4 137.651 11.6903 300.291 11.6903C462.931 11.6903 594.791 144.44 594.791 308.2ZM917.861 308.2C917.861 462.36 851.931 587.32 770.611 587.32C689.291 587.32 623.361 462.32 623.361 308.2C623.361 154.08 689.291 29.0803 770.611 29.0803C851.931 29.0803 917.861 154.08 917.861 308.2ZM1050 308.2C1050 446.32 1026.81 558.28 998.211 558.28C969.611 558.28 946.421 446.28 946.421 308.2C946.421 170.12 969.611 58.1203 998.221 58.1203C1026.83 58.1203 1050 170.09 1050 308.2ZM1862.77 37.4003L1863.59 37.2203V30.8703H1696.11L1540.6 396.37L1385.09 30.8703H1204.61V37.2203L1205.42 37.4003C1235.99 44.3003 1251.51 54.5903 1251.51 91.7003V526.15C1251.51 563.26 1235.93 573.55 1205.36 580.45L1204.55 580.63V587H1327V580.65L1326.19 580.47C1295.62 573.57 1280.1 563.28 1280.1 526.17V116.9L1479.87 587H1491.2L1696.79 103.79V536.9C1694.17 566.21 1678.79 575.26 1651.11 581.51L1650.29 581.7V588H1863.59V581.7L1862.77 581.51C1835.06 575.26 1819.31 566.21 1816.69 536.9L1816.55 91.7003H1816.69C1816.69 54.5903 1832.21 44.3003 1862.77 37.4003ZM1960.2 325.2C1963.69 247.14 1991.72 190.8 2038.76 189.83C2053.27 190.07 2065.44 194.83 2074.9 203.99C2095 223.5 2104.45 264.27 2102.99 325.2H1960.2ZM1958.09 347.2H2208.09V346.15C2207.38 286.46 2190.09 240.03 2156.75 208.15C2127.93 180.6 2085.26 165.44 2040.44 165.44H2039.44C2016.18 165.44 1987.65 171.08 1967.35 181.3C1944.24 192 1923.86 208 1906.9 229C1879.6 262.83 1863.06 308.55 1859.04 359.93C1858.91 361.47 1858.8 363.01 1858.69 364.55C1858.58 366.09 1858.51 367.47 1858.44 368.94C1858.08 376.164 1857.96 383.398 1858.08 390.63C1860.79 507 1923.65 600 2035.3 600C2133.3 600 2190.37 528.36 2204.6 432.2L2197.41 429.67C2172.41 481.35 2127.51 512.67 2076.41 508.85C2006.65 503.63 1953.21 432.9 1958.06 347.22M2490.75 504.9C2482.55 524.35 2465.44 535.05 2442.51 535.05C2419.58 535.05 2398.62 519.31 2383.73 490.71C2367.73 460.01 2359.31 416.61 2359.31 365.2C2359.31 258.2 2392.59 188.99 2444.1 188.99C2465.67 188.99 2482.65 199.69 2490.75 218.36V504.9ZM2656.59 581.18C2626.02 573.95 2610.5 563.18 2610.5 524.18V5.28027L2424.77 60.0003V66.7003L2425.91 66.6103C2451.53 64.5403 2468.91 68.0803 2479 77.4003C2486.9 84.7003 2490.75 95.9003 2490.75 111.66V182.8C2472.44 171.11 2450.66 165.42 2424.23 165.42C2370.63 165.42 2321.64 187.99 2286.31 228.98C2249.48 271.7 2230.01 330.08 2230.01 397.79C2230 518.72 2289.53 600 2378.13 600C2429.96 600 2471.66 571.6 2490.75 523.7V588H2657.4V581.34L2656.59 581.18ZM2815.88 75.8503C2815.88 38.0903 2787.41 9.61027 2749.64 9.61027C2712.05 9.61027 2682.64 38.7103 2682.64 75.8503C2682.64 112.99 2712.08 142.09 2749.64 142.09C2787.41 142.09 2815.88 113.61 2815.88 75.8503ZM2859.72 581.18C2829.15 573.95 2813.63 563.18 2813.63 524.18H2813.5V166.65L2646.84 214.5V221L2647.84 221.09C2683.9 224.3 2693.77 236.72 2693.77 278.86V588H2860.57V581.34L2859.72 581.18ZM3286.77 581.18C3256.2 573.95 3240.68 563.18 3240.68 524.18V166.65L3082 212.92V219.44L3082.94 219.54C3112.42 222.64 3120.94 235.77 3120.94 278.1V504.1C3111.11 523.55 3092.67 535.1 3070.33 535.88C3034.1 535.88 3014.15 511.41 3014.15 466.98V166.66L2847.49 214.51V221L2848.49 221.09C2884.55 224.29 2894.43 236.71 2894.43 278.86V470.13C2894.35 483.483 2895.51 496.814 2897.9 509.95L2900.9 523C2915.01 573.56 2951.98 600 3009.9 600C3058.96 600 3101.96 569.63 3120.9 522.11V588.11H3287.56V581.45L3286.77 581.18ZM2900.9 5.28027L3934.2 581.33L3933.39 581.14C3900.22 573.49 3887.3 559.07 3887.3 529.71V286.51C3887.3 210.68 3844.71 165.42 3773.37 165.42C3721.37 165.42 3677.52 195.47 3660.64 242.28C3647.23 192.68 3608.64 165.42 3551.58 165.42C3501.46 165.42 3462.18 191.87 3445.33 236.55V166.68L3278.67 212.57V219.11L3279.67 219.2C3315.3 222.36 3325.6 235.14 3325.6 276.2V588H3481.1V581.34L3480.28 581.14C3453.82 574.92 3445.28 563.58 3445.28 534.48V255.72C3452.28 239.37 3466.39 220 3494.28 220C3528.92 220 3546.48 244 3546.48 291.28V588H3702.02V581.34L3701.2 581.14C3674.74 574.92 3666.2 563.58 3666.2 534.48V286.48C3666.27 277.207 3665.53 267.946 3664 258.8C3671.42 241.03 3686.34 220 3715.37 220C3750.5 220 3767.57 243.31 3767.57 291.28V588L2900.9 5.28027Z" fill="black"/>
</g>
<defs>
<clipPath id="clip0_1216_5">
<rect width="1055" height="610" fill="white"/>
</clipPath>
</defs>
</svg>
